<svg id="mountain" viewBox="0 0 960 540" preserveAspectRation="none" xmlns="http://www.w3.org/2000/svg">
<path d="M0 152L64 158L128 93L192 131L256 158L320 163L384 125L448 98L512 152L576 98L640 114L704 98L768 163L832 158L896 125L960 168L960 0L896 0L832 0L768 0L704 0L640 0L576 0L512 0L448 0L384 0L320 0L256 0L192 0L128 0L64 0L0 0Z" fill="#172a3a"></path><path d="m0 357 64-48 64 48 64 33 64-16 64-49 64 27 64 16 64-21 64 16 64-6 64-5 64 22 64 37 64-118 64 64V166l-64-43-64 33-64 5-64-65-64 16-64-16-64 54-64-54-64 27-64 38-64-5-64-27-64-38-64 65-64-6Z" fill="#bfd6e6"/><path d="M0 541h960V355l-64-64-64 118-64-37-64-22-64 5-64 6-64-16-64 21-64-16-64-27-64 49-64 16-64-33-64-48-64 48Z" fill="#8fbbd6"/></svg>